<svg width="68" height="68" viewBox="0 0 68 68" fill="none" xmlns="http://www.w3.org/2000/svg">
<mask id="mask0_100_14749" style="mask-type:alpha" maskUnits="userSpaceOnUse" x="0" y="0" width="68" height="68">
<rect width="68" height="68" fill="#D9D9D9"/>
</mask>
<g mask="url(#mask0_100_14749)">
<path d="M65.5 54H33M5 54H8M10.5 54H30" stroke="#B71923" stroke-width="2"/>
<circle cx="47" cy="47" r="5" stroke="white" stroke-width="2" stroke-linecap="round"/>
<circle cx="47" cy="47" r="2" fill="white"/>
<circle cx="22" cy="47" r="5" stroke="white" stroke-width="2" stroke-linecap="round"/>
<circle cx="22" cy="47" r="2" fill="white"/>
<path d="M27.5 47H41.5" stroke="white" stroke-width="2"/>
<path d="M17 47H11V35L12 33.5M51.5 47H58V36L49.5 35L48.7857 33.5M45.9286 27.5L44.5 24.5H15L13.8571 27.5" stroke="white" stroke-width="2"/>
<path d="M13 27.5H47L49 33.5H12L13 27.5Z" stroke="white" stroke-width="2"/>
<rect x="55" y="39" width="2" height="2" stroke="white" stroke-width="2"/>
<path d="M17.5 38H25.5" stroke="white" stroke-width="2"/>
<path d="M14 38H16" stroke="white" stroke-width="2"/>
<path d="M22 27.5V33" stroke="white" stroke-width="2"/>
<path d="M35.5 27.5V33.5" stroke="white" stroke-width="2"/>
</g>
</svg>
