<svg width="68" height="68" viewBox="0 0 68 68" fill="none" xmlns="http://www.w3.org/2000/svg">
<mask id="mask0_100_16535" style="mask-type:alpha" maskUnits="userSpaceOnUse" x="0" y="0" width="68" height="68">
<rect width="68" height="68" fill="#D9D9D9"/>
</mask>
<g mask="url(#mask0_100_16535)">
<path d="M40 31L46 27H64V7H40V12.5" stroke="#B71923" stroke-width="2"/>
<path d="M48.0805 21.9998V10.7998H52.6885C54.1605 10.7998 55.3178 11.1198 56.1605 11.7598C57.0138 12.3891 57.4405 13.3225 57.4405 14.5598C57.4405 15.7865 57.0138 16.7198 56.1605 17.3598C55.3178 17.9891 54.1605 18.3038 52.6885 18.3038H49.2325L50.1605 17.3438V21.9998H48.0805ZM50.1605 17.5678L49.2325 16.6238H52.6725C53.5258 16.6238 54.1818 16.4478 54.6405 16.0958C55.1098 15.7331 55.3445 15.2265 55.3445 14.5758C55.3445 13.9251 55.1098 13.4291 54.6405 13.0878C54.1818 12.7358 53.5258 12.5598 52.6725 12.5598H49.2325L50.1605 11.5358V17.5678ZM46.4805 20.3358V19.2158H53.6805V20.3358H46.4805Z" fill="#B71923"/>
<rect x="11" y="16" width="30" height="5" stroke="#828594" stroke-width="2"/>
<rect x="11" y="57" width="30" height="5" stroke="#828594" stroke-width="2"/>
<path d="M14 21H38V27C38 33.6274 32.6274 39 26 39V39C19.3726 39 14 33.6274 14 27V21Z" stroke="#828594" stroke-width="2"/>
<path d="M38 57H14V51C14 44.3726 19.3726 39 26 39V39C32.6274 39 38 44.3726 38 51V57Z" stroke="#828594" stroke-width="2"/>
<path d="M15 31.5004C18 28.0004 24 28.5004 28 30.5004C33.9992 33.5 36.5 29 38 26.5" stroke="#828594" stroke-width="2"/>
<path d="M17 56.9995C17 56.9995 19 50.499 26 49.9995C33 49.5 35 56.9995 35 56.9995" stroke="#828594" stroke-width="2"/>
<circle cx="28.5" cy="46.5" r="1.5" fill="#828594"/>
<circle cx="24.5" cy="42.5" r="1.5" fill="#828594"/>
</g>
</svg>
