<svg width="156" height="156" viewBox="0 0 156 156" fill="none" xmlns="http://www.w3.org/2000/svg">
<g opacity="0.5">
<circle cx="4.0625" cy="4.0625" r="4.0625" fill="white"/>
<circle cx="88.5625" cy="4.0625" r="4.0625" fill="white"/>
<circle cx="46.3125" cy="4.0625" r="4.0625" fill="white"/>
<circle cx="130.812" cy="4.0625" r="4.0625" fill="white"/>
<circle cx="25.1875" cy="4.0625" r="4.0625" fill="white"/>
<circle cx="109.688" cy="4.0625" r="4.0625" fill="white"/>
<circle cx="67.4375" cy="4.0625" r="4.0625" fill="white"/>
<circle cx="151.938" cy="4.0625" r="4.0625" fill="white"/>
<circle cx="4.0625" cy="88.5625" r="4.0625" fill="white"/>
<circle cx="88.5625" cy="88.5625" r="4.0625" fill="white"/>
<circle cx="46.3125" cy="88.5625" r="4.0625" fill="white"/>
<circle cx="130.812" cy="88.5625" r="4.0625" fill="white"/>
<circle cx="25.1875" cy="88.5625" r="4.0625" fill="white"/>
<circle cx="109.688" cy="88.5625" r="4.0625" fill="white"/>
<circle cx="67.4375" cy="88.5625" r="4.0625" fill="white"/>
<circle cx="151.938" cy="88.5625" r="4.0625" fill="white"/>
<circle cx="4.0625" cy="46.3125" r="4.0625" fill="white"/>
<circle cx="88.5625" cy="46.3125" r="4.0625" fill="white"/>
<circle cx="46.3125" cy="46.3125" r="4.0625" fill="white"/>
<circle cx="130.812" cy="46.3125" r="4.0625" fill="white"/>
<circle cx="25.1875" cy="46.3125" r="4.0625" fill="white"/>
<circle cx="109.688" cy="46.3125" r="4.0625" fill="white"/>
<circle cx="67.4375" cy="46.3125" r="4.0625" fill="white"/>
<circle cx="151.938" cy="46.3125" r="4.0625" fill="white"/>
<circle cx="4.0625" cy="130.812" r="4.0625" fill="white"/>
<circle cx="88.5625" cy="130.812" r="4.0625" fill="white"/>
<circle cx="46.3125" cy="130.812" r="4.0625" fill="white"/>
<circle cx="130.812" cy="130.812" r="4.0625" fill="white"/>
<circle cx="25.1875" cy="130.812" r="4.0625" fill="white"/>
<circle cx="109.688" cy="130.812" r="4.0625" fill="white"/>
<circle cx="67.4375" cy="130.812" r="4.0625" fill="white"/>
<circle cx="151.938" cy="130.812" r="4.0625" fill="white"/>
<circle cx="4.0625" cy="25.1875" r="4.0625" fill="white"/>
<circle cx="88.5625" cy="25.1875" r="4.0625" fill="white"/>
<circle cx="46.3125" cy="25.1875" r="4.0625" fill="white"/>
<circle cx="130.812" cy="25.1875" r="4.0625" fill="white"/>
<circle cx="25.1875" cy="25.1875" r="4.0625" fill="white"/>
<circle cx="109.688" cy="25.1875" r="4.0625" fill="white"/>
<circle cx="67.4375" cy="25.1875" r="4.0625" fill="white"/>
<circle cx="151.938" cy="25.1875" r="4.0625" fill="white"/>
<circle cx="4.0625" cy="109.688" r="4.0625" fill="white"/>
<circle cx="88.5625" cy="109.688" r="4.0625" fill="white"/>
<circle cx="46.3125" cy="109.688" r="4.0625" fill="white"/>
<circle cx="130.812" cy="109.688" r="4.0625" fill="white"/>
<circle cx="25.1875" cy="109.688" r="4.0625" fill="white"/>
<circle cx="109.688" cy="109.688" r="4.0625" fill="white"/>
<circle cx="67.4375" cy="109.688" r="4.0625" fill="white"/>
<circle cx="151.938" cy="109.688" r="4.0625" fill="white"/>
<circle cx="4.0625" cy="67.4375" r="4.0625" fill="white"/>
<circle cx="88.5625" cy="67.4375" r="4.0625" fill="white"/>
<circle cx="46.3125" cy="67.4375" r="4.0625" fill="white"/>
<circle cx="130.812" cy="67.4375" r="4.0625" fill="white"/>
<circle cx="25.1875" cy="67.4375" r="4.0625" fill="white"/>
<circle cx="109.688" cy="67.4375" r="4.0625" fill="white"/>
<circle cx="67.4375" cy="67.4375" r="4.0625" fill="white"/>
<circle cx="151.938" cy="67.4375" r="4.0625" fill="white"/>
<circle cx="4.0625" cy="151.938" r="4.0625" fill="white"/>
<circle cx="88.5625" cy="151.938" r="4.0625" fill="white"/>
<circle cx="46.3125" cy="151.938" r="4.0625" fill="white"/>
<circle cx="130.812" cy="151.938" r="4.0625" fill="white"/>
<circle cx="25.1875" cy="151.938" r="4.0625" fill="white"/>
<circle cx="109.688" cy="151.938" r="4.0625" fill="white"/>
<circle cx="67.4375" cy="151.938" r="4.0625" fill="white"/>
<circle cx="151.938" cy="151.938" r="4.0625" fill="white"/>
</g>
</svg>
