<svg width="248" height="248" viewBox="0 0 248 248" fill="none" xmlns="http://www.w3.org/2000/svg">
<circle cx="5" cy="5.00073" r="5" fill="#B71923"/>
<circle cx="141" cy="5.00073" r="5" fill="#B71923"/>
<circle cx="73" cy="5.00073" r="5" fill="#B71923"/>
<circle cx="209" cy="5.00073" r="5" fill="#B71923"/>
<circle cx="39" cy="5.00073" r="5" fill="#B71923"/>
<circle cx="175" cy="5.00073" r="5" fill="#B71923"/>
<circle cx="107" cy="5.00073" r="5" fill="#B71923"/>
<circle cx="243" cy="5.00073" r="5" fill="#B71923"/>
<circle cx="5" cy="141.001" r="5" fill="#B71923"/>
<circle cx="141" cy="141.001" r="5" fill="#B71923"/>
<circle cx="73" cy="141.001" r="5" fill="#B71923"/>
<circle cx="209" cy="141.001" r="5" fill="#B71923"/>
<circle cx="39" cy="141.001" r="5" fill="#B71923"/>
<circle cx="175" cy="141.001" r="5" fill="#B71923"/>
<circle cx="107" cy="141.001" r="5" fill="#B71923"/>
<circle cx="243" cy="141.001" r="5" fill="#B71923"/>
<circle cx="5" cy="73.0007" r="5" fill="#B71923"/>
<circle cx="141" cy="73.0007" r="5" fill="#B71923"/>
<circle cx="73" cy="73.0007" r="5" fill="#B71923"/>
<circle cx="209" cy="73.0007" r="5" fill="#B71923"/>
<circle cx="39" cy="73.0007" r="5" fill="#B71923"/>
<circle cx="175" cy="73.0007" r="5" fill="#B71923"/>
<circle cx="107" cy="73.0007" r="5" fill="#B71923"/>
<circle cx="243" cy="73.0007" r="5" fill="#B71923"/>
<circle cx="5" cy="209.001" r="5" fill="#B71923"/>
<circle cx="141" cy="209.001" r="5" fill="#B71923"/>
<circle cx="73" cy="209.001" r="5" fill="#B71923"/>
<circle cx="209" cy="209.001" r="5" fill="#B71923"/>
<circle cx="39" cy="209.001" r="5" fill="#B71923"/>
<circle cx="175" cy="209.001" r="5" fill="#B71923"/>
<circle cx="107" cy="209.001" r="5" fill="#B71923"/>
<circle cx="243" cy="209.001" r="5" fill="#B71923"/>
<circle cx="5" cy="39.0007" r="5" fill="#B71923"/>
<circle cx="141" cy="39.0007" r="5" fill="#B71923"/>
<circle cx="73" cy="39.0007" r="5" fill="#B71923"/>
<circle cx="209" cy="39.0007" r="5" fill="#B71923"/>
<circle cx="39" cy="39.0007" r="5" fill="#B71923"/>
<circle cx="175" cy="39.0007" r="5" fill="#B71923"/>
<circle cx="107" cy="39.0007" r="5" fill="#B71923"/>
<circle cx="243" cy="39.0007" r="5" fill="#B71923"/>
<circle cx="5" cy="175.001" r="5" fill="#B71923"/>
<circle cx="141" cy="175.001" r="5" fill="#B71923"/>
<circle cx="73" cy="175.001" r="5" fill="#B71923"/>
<circle cx="209" cy="175.001" r="5" fill="#B71923"/>
<circle cx="39" cy="175.001" r="5" fill="#B71923"/>
<circle cx="175" cy="175.001" r="5" fill="#B71923"/>
<circle cx="107" cy="175.001" r="5" fill="#B71923"/>
<circle cx="243" cy="175.001" r="5" fill="#B71923"/>
<circle cx="5" cy="107.001" r="5" fill="#B71923"/>
<circle cx="141" cy="107.001" r="5" fill="#B71923"/>
<circle cx="73" cy="107.001" r="5" fill="#B71923"/>
<circle cx="209" cy="107.001" r="5" fill="#B71923"/>
<circle cx="39" cy="107.001" r="5" fill="#B71923"/>
<circle cx="175" cy="107.001" r="5" fill="#B71923"/>
<circle cx="107" cy="107.001" r="5" fill="#B71923"/>
<circle cx="243" cy="107.001" r="5" fill="#B71923"/>
<circle cx="5" cy="243.001" r="5" fill="#B71923"/>
<circle cx="141" cy="243.001" r="5" fill="#B71923"/>
<circle cx="73" cy="243.001" r="5" fill="#B71923"/>
<circle cx="209" cy="243.001" r="5" fill="#B71923"/>
<circle cx="39" cy="243.001" r="5" fill="#B71923"/>
<circle cx="175" cy="243.001" r="5" fill="#B71923"/>
<circle cx="107" cy="243.001" r="5" fill="#B71923"/>
<circle cx="243" cy="243.001" r="5" fill="#B71923"/>
</svg>
