<svg width="68" height="68" viewBox="0 0 68 68" fill="none" xmlns="http://www.w3.org/2000/svg">
<mask id="mask0_100_17679" style="mask-type:alpha" maskUnits="userSpaceOnUse" x="0" y="0" width="68" height="68">
<rect width="68" height="68" fill="#D9D9D9"/>
</mask>
<g mask="url(#mask0_100_17679)">
<rect x="27" y="40" width="14" height="20" stroke="#828594" stroke-width="2"/>
<path d="M13 51V46H27V60H13V56.5" stroke="#828594" stroke-width="2"/>
<path d="M46 60H41V51H55V60H51.5" stroke="#828594" stroke-width="2"/>
<path d="M35.1632 26.1008C35.1632 26.3411 35.0898 26.4953 34.8632 26.6498C34.5692 26.8333 34.1199 26.9664 33.441 26.9664C32.7369 26.9664 32.0178 26.8572 31.2806 26.6326C30.5638 26.4093 29.8998 26.0904 29.2854 25.6755L28.7456 25.3109H32.8576C33.6958 25.3109 34.246 25.3859 34.5686 25.4897L34.5842 25.4947L34.5999 25.4992C34.9367 25.5956 35.0272 25.7048 35.0448 25.7307L35.0528 25.7425L35.0612 25.754C35.1243 25.8413 35.1632 25.9441 35.1632 26.1008ZM28.1734 25.3109L27.817 26.0867L26.0913 29.843L25.7296 30.6304L26.4575 31.1006C27.4226 31.7238 28.547 32.1908 29.8147 32.515C31.0748 32.8373 32.3328 33 33.5868 33C35.4055 33 36.9823 32.6989 38.2574 32.0278C39.4809 31.3838 40.4365 30.5215 41.0648 29.4228C41.6844 28.3509 42 27.1963 42 25.9748C42 24.7781 41.7288 23.6728 41.1658 22.6846C40.5791 21.6375 39.6655 20.8449 38.4959 20.2853C37.2882 19.6905 35.768 19.4286 34 19.4286H33.9473L33.9932 18.8571H39.9306H40.9306V17.8571V14V13H39.9306H29.0903H28.1694L28.0937 13.9178L27.243 24.2287L27.1537 25.3109H28.1734Z" stroke="#B71923" stroke-width="2"/>
<path d="M44.5 9.5L47 5.5" stroke="#B71923" stroke-width="2"/>
<path d="M46 12L51 12.5" stroke="#B71923" stroke-width="2"/>
<path d="M23.5 10L21 6" stroke="#B71923" stroke-width="2"/>
<path d="M22 12.5L17 13" stroke="#B71923" stroke-width="2"/>
</g>
</svg>
