<svg width="68" height="68" viewBox="0 0 68 68" fill="none" xmlns="http://www.w3.org/2000/svg">
<mask id="mask0_100_17713" style="mask-type:alpha" maskUnits="userSpaceOnUse" x="0" y="0" width="68" height="68">
<rect width="68" height="68" fill="#D9D9D9"/>
</mask>
<g mask="url(#mask0_100_17713)">
<path d="M11.1037 55.7754L4.99947 46.7255L12.1875 41.8771L22.4903 57.1516L15.3023 62L13.7911 59.7596" stroke="#828594" stroke-width="2"/>
<path d="M20.8594 55.4245L23.3454 53.7672C23.8312 53.4433 24.4342 53.3479 24.9963 53.506L38.1637 57.2093C40.2533 57.797 42.4949 57.4557 44.3149 56.2727L60.2561 45.9109C61.8256 44.8908 62.2369 42.7729 61.1635 41.2394V41.2394C60.1425 39.7807 58.1503 39.3916 56.6554 40.3589L50.1217 44.5866" stroke="#828594" stroke-width="2"/>
<path d="M13.2734 44.0446L23.1522 38.2072C24.4545 37.4376 26.0191 37.2472 27.468 37.6819L43.4475 42.4757C45.3212 43.0378 46.3593 45.0377 45.7407 46.8936V46.8936C45.1587 48.6395 43.3142 49.6266 41.5387 49.1424L32.7817 46.7541" stroke="#828594" stroke-width="2"/>
<path d="M34 18H54V33H34V18Z" stroke="#B71923" stroke-width="2"/>
<rect x="31" y="13" width="26" height="5" stroke="#B71923" stroke-width="2"/>
<path d="M44 14L44 33" stroke="#B71923" stroke-width="2"/>
<path d="M40.8446 7.42119C41.9504 8.20608 44.2128 11.16 43.4279 12.2658C42.643 13.3716 39.1081 12.2106 38.0022 11.4257C36.8964 10.6408 36.6363 9.10808 37.4212 8.00227C38.2061 6.89646 39.7388 6.6363 40.8446 7.42119Z" stroke="#B71923" stroke-width="2"/>
<path d="M47.0031 7.42119C45.8973 8.20608 43.6349 11.16 44.4198 12.2658C45.2046 13.3716 48.7396 12.2106 49.8454 11.4257C50.9512 10.6408 51.2114 9.10808 50.4265 8.00227C49.6416 6.89646 48.1089 6.6363 47.0031 7.42119Z" stroke="#B71923" stroke-width="2"/>
</g>
</svg>
