<svg width="68" height="68" viewBox="0 0 68 68" fill="none" xmlns="http://www.w3.org/2000/svg">
<mask id="mask0_100_17696" style="mask-type:alpha" maskUnits="userSpaceOnUse" x="0" y="0" width="68" height="68">
<rect width="68" height="68" fill="#D9D9D9"/>
</mask>
<g mask="url(#mask0_100_17696)">
<circle cx="34" cy="45" r="7" stroke="#828594" stroke-width="2"/>
<path d="M44 62V62C44 56.4772 39.5228 52 34 52V52C28.4772 52 24 56.4772 24 62V62" stroke="#828594" stroke-width="2"/>
<path d="M16 17.5V6H52V29H39L34 33L29 29H16V23.25" stroke="#B71923" stroke-width="2"/>
<path d="M34 24C33.5745 24.9049 33.5742 24.9048 33.5738 24.9046L33.5731 24.9043L33.571 24.9033L33.5651 24.9005L33.5458 24.8912C33.5296 24.8835 33.507 24.8725 33.4784 24.8583C33.4212 24.83 33.3398 24.789 33.2376 24.7356C33.0335 24.6289 32.7458 24.4724 32.4022 24.2688C31.717 23.8628 30.7985 23.2629 29.8736 22.4893C28.0677 20.9787 26.0238 18.6246 26 15.6038L26 15.5959H26C26 13.0625 28.0675 11 30.6012 11C31.9494 11 33.1603 11.5779 34 12.4896C34.8398 11.5779 36.0506 11 37.3989 11C39.9324 11 42 13.0625 42 15.5959C42 18.6036 39.9495 20.961 38.1418 22.4739C37.2147 23.2499 36.2927 23.8534 35.6048 24.2623C35.2597 24.4675 34.9708 24.6253 34.7658 24.733C34.6632 24.7869 34.5815 24.8283 34.5241 24.8569C34.4953 24.8711 34.4727 24.8822 34.4565 24.8901L34.4371 24.8994L34.4312 24.9023L34.4292 24.9032L34.4284 24.9036C34.4281 24.9037 34.4278 24.9039 34 24ZM34 24L33.5745 24.9049L34.0014 25.1057L34.4278 24.9039L34 24Z" stroke="#B71923" stroke-width="2"/>
<circle cx="17" cy="43" r="5" stroke="#828594" stroke-width="2"/>
<path d="M9 56C9 51.5817 12.5817 48 17 48C19.5264 48 21.7792 49.1711 23.2454 51" stroke="#828594" stroke-width="2"/>
<circle cx="51" cy="43" r="5" stroke="#828594" stroke-width="2"/>
<path d="M58.9993 56C58.9993 51.5817 55.4176 48 50.9993 48C48.4729 48 46.22 49.1711 44.7539 51" stroke="#828594" stroke-width="2"/>
</g>
</svg>
