<svg width="59" height="68" viewBox="0 0 59 68" fill="none" xmlns="http://www.w3.org/2000/svg">
<mask id="mask0_100_16503" style="mask-type:alpha" maskUnits="userSpaceOnUse" x="0" y="0" width="59" height="68">
<rect width="58.5556" height="68" fill="#D9D9D9"/>
</mask>
<g mask="url(#mask0_100_16503)">
<path d="M11.1934 26V60H47.36V51V49.5M11.1934 21.5V11H36.1656M36.1656 11V23.5H42.6239M36.1656 11L47.36 23.5V28.5" stroke="#828594" stroke-width="2"/>
<rect x="15.501" y="16" width="15.5" height="7" stroke="#828594" stroke-width="2"/>
<path d="M14.6387 29L43.9165 29" stroke="#828594" stroke-width="2"/>
<path d="M14.6387 34L41.3331 34" stroke="#828594" stroke-width="2"/>
<path d="M14.6387 39L37.8887 39" stroke="#828594" stroke-width="2"/>
<path d="M14.6387 44L34.4442 44" stroke="#828594" stroke-width="2"/>
<path d="M14.6387 54L34.4442 54" stroke="#B71923" stroke-width="2"/>
<path d="M37.8892 8.5V6H5.16699V46H8.18088" stroke="#828594" stroke-width="2"/>
<path d="M48.9697 31L53.6139 35.4388L42.147 51.6183L36.7671 53.7135L37.5029 47.1796L48.9697 31Z" stroke="#B71923" stroke-width="2"/>
<path d="M46.6768 34.2363L49.9276 37.3435" stroke="#B71923" stroke-width="2"/>
</g>
</svg>
