<svg width="171" height="32" viewBox="0 0 171 32" fill="none" xmlns="http://www.w3.org/2000/svg">
<path d="M60.6009 15.8519H62.2742L61.3263 20.5307H58.7947L59.2831 18.0829H50.9397L50.46 20.5307H47.9168L48.8618 15.8519H49.2173C49.9494 15.8307 50.5823 15.2902 51.116 14.2306C51.767 12.833 52.2576 11.3661 52.5784 9.85804L53.4453 6.26001H62.5315L60.6009 15.8519ZM53.8962 13.8C53.6551 14.5557 53.2617 15.2541 52.7402 15.8519H57.893L59.3611 8.48819H55.3152L54.8932 10.3175C54.6242 11.4956 54.2914 12.6581 53.8962 13.8Z" fill="#B71923"/>
<path d="M74.1404 7.23108C74.5399 7.55662 74.8572 7.97165 75.0666 8.44259C75.276 8.91354 75.3715 9.42716 75.3455 9.94189C75.368 10.8582 75.1251 11.7614 74.6461 12.5429C74.1635 13.2928 73.4696 13.8831 72.652 14.2393C71.6894 14.6499 70.6492 14.8471 69.6031 14.8173H66.9675L66.3259 18.0772H63.5746L65.9386 6.27161H70.7187C72.1925 6.27161 73.3331 6.59143 74.1404 7.23108ZM71.8284 11.9678C72.0799 11.7455 72.2774 11.4689 72.4061 11.159C72.5348 10.849 72.5912 10.5139 72.5711 10.1789C72.5862 9.93621 72.5414 9.69358 72.4406 9.47234C72.3398 9.25109 72.1861 9.05803 71.9931 8.91016C71.5089 8.59895 70.9376 8.45108 70.3632 8.48823H68.2188L67.3894 12.592H69.7014C70.6348 12.592 71.3371 12.3839 71.8457 11.9678H71.8284Z" fill="#B71923"/>
<path d="M83.8768 15.5485H78.3858L76.8483 18.083H73.9121L81.5619 6.27161H84.2727L87.1627 18.083H84.4259L83.8768 15.5485ZM83.4202 13.4706L82.4231 8.91016L79.6487 13.4706H83.4202Z" fill="#B71923"/>
<path d="M91.1214 6.27164H93.8236L92.2543 13.9734L99.433 6.27164H102.034L99.6671 18.0946H96.965L98.5545 10.4101L91.3584 18.0946H88.7574L91.1214 6.27164ZM94.5432 5.01161C94.2985 4.83092 94.1029 4.5919 93.9742 4.3163C93.8455 4.0407 93.7877 3.73729 93.8062 3.43368C93.8024 3.26919 93.814 3.1047 93.8409 2.94238H95.5749C95.5617 3.02065 95.5559 3.1 95.5576 3.17936C95.5503 3.32414 95.5761 3.46867 95.6332 3.6019C95.6903 3.73514 95.7772 3.85356 95.887 3.9481C96.1606 4.15447 96.4986 4.2569 96.8407 4.2371C97.2306 4.253 97.6145 4.13693 97.9302 3.90764C98.2284 3.67157 98.4249 3.33032 98.4793 2.95395H100.254C100.211 3.33731 100.091 3.70818 99.9028 4.0447C99.7142 4.38122 99.4602 4.67658 99.1556 4.91335C98.5776 5.34107 97.7617 5.55492 96.7078 5.55492C95.7522 5.53951 95.0306 5.35456 94.5432 5.00005V5.01161Z" fill="#B71923"/>
<path d="M113.646 12.8897C113.932 13.3218 114.076 13.8316 114.06 14.3491C114.088 14.9003 113.969 15.4491 113.715 15.9392C113.461 16.4292 113.081 16.843 112.615 17.1379C111.651 17.768 110.362 18.083 108.748 18.083H102.54L104.904 6.27161H110.615C111.886 6.27161 112.866 6.50474 113.554 6.97099C113.884 7.18744 114.152 7.48571 114.332 7.83671C114.513 8.18771 114.599 8.57947 114.583 8.97374C114.598 9.6369 114.395 10.2866 114.005 10.8233C113.609 11.3499 113.075 11.7561 112.462 11.9967C112.937 12.1684 113.35 12.4796 113.646 12.8897ZM110.699 15.5831C110.905 15.4452 111.073 15.2562 111.186 15.0344C111.298 14.8127 111.351 14.5657 111.34 14.3173C111.34 13.5052 110.762 13.1006 109.566 13.1006H106.257L105.679 16.0224H108.904C109.533 16.0585 110.158 15.9055 110.699 15.5831ZM107.202 8.3206L106.644 11.1066H109.433C110.024 11.1413 110.611 10.9907 111.112 10.6759C111.308 10.5354 111.466 10.3481 111.57 10.131C111.675 9.91396 111.725 9.67409 111.713 9.43325C111.713 8.69149 111.135 8.3206 109.979 8.3206H107.202Z" fill="#B71923"/>
<path d="M125.192 12.9186C125.497 13.3541 125.656 13.8753 125.645 14.407C125.649 15.1737 125.356 15.9121 124.827 16.4675C124.225 17.0999 123.477 17.5752 122.648 17.8518C121.707 18.1836 120.716 18.3489 119.718 18.3402C118.905 18.34 118.095 18.2321 117.311 18.0194C116.538 17.8152 115.805 17.4841 115.14 17.0397L116.392 15.0803C116.871 15.4155 117.405 15.6649 117.97 15.8173C118.55 15.9777 119.15 16.0593 119.753 16.06C120.529 16.0844 121.299 15.9103 121.99 15.5543C122.602 15.2162 122.911 14.7596 122.911 14.1873C122.911 13.4167 122.326 13.0313 121.154 13.0313H118.233L118.637 10.9708H121.374C121.885 10.9955 122.391 10.8568 122.819 10.5749C122.989 10.4638 123.128 10.312 123.224 10.1332C123.32 9.95452 123.369 9.75463 123.368 9.5518C123.373 9.35072 123.322 9.15222 123.22 8.97898C123.117 8.80574 122.969 8.66473 122.79 8.57209C122.307 8.32523 121.768 8.20868 121.227 8.23397C120.683 8.24129 120.141 8.31208 119.614 8.44493C119.021 8.59138 118.446 8.80366 117.9 9.07784L117.496 6.95082C118.795 6.33739 120.212 6.01488 121.648 6.00579C122.435 5.99718 123.216 6.12227 123.96 6.3757C124.591 6.58514 125.158 6.9522 125.608 7.44211C126.007 7.88696 126.223 8.46587 126.215 9.06339C126.216 9.68908 125.999 10.2955 125.599 10.7771C125.162 11.3088 124.585 11.7089 123.934 11.9331C124.438 12.137 124.873 12.4785 125.192 12.9186Z" fill="#1D3A44"/>
<path d="M135.746 15.5485H130.241L128.703 18.083H125.782L133.434 6.27161H136.136L139.041 18.0945H136.293L135.746 15.5485ZM135.293 13.4706L134.296 8.91016L131.507 13.4706H135.293Z" fill="#1D3A44"/>
<path d="M142.995 6.2716H145.697L144.125 13.9734L151.303 6.2716H153.904L151.54 18.0945H148.838L150.425 10.4101L143.229 18.083H140.628L142.995 6.2716ZM146.408 5.00001C146.164 4.81883 145.969 4.57963 145.841 4.3041C145.712 4.02856 145.655 3.7254 145.674 3.42208C145.67 3.25759 145.681 3.0931 145.708 2.93079H147.442C147.429 3.00906 147.423 3.0884 147.425 3.16776C147.418 3.31253 147.444 3.45706 147.501 3.5903C147.558 3.72354 147.645 3.84195 147.754 3.9365C148.028 4.14287 148.366 4.2453 148.708 4.2255C149.098 4.2414 149.482 4.12533 149.798 3.89604C150.095 3.65919 150.291 3.31833 150.347 2.94234H152.121C152.078 3.32571 151.959 3.69659 151.77 4.03311C151.582 4.36963 151.328 4.66498 151.023 4.90175C150.445 5.32947 149.621 5.54333 148.572 5.54333C147.624 5.53563 146.903 5.35452 146.408 5.00001Z" fill="#1D3A44"/>
<path d="M170.155 6.27161L167.794 18.083H165.245L166.646 11.0401L162.121 16.82H160.886L158.453 10.9418L157.034 18.0714H154.5L156.861 6.27161H159.092L162.045 13.6353L167.794 6.27161H170.155Z" fill="#1D3A44"/>
<path d="M36.3981 6.81947C34.3912 2.37327 30.8755 0.130737 26.0552 0.0457001C21.0648 -0.0441957 19.4734 0.0262627 14.4805 0.0262627H0L6.82236 9.31954C12.6097 9.31954 17.8552 9.31954 23.5673 9.31954V4.99726L30.4917 11.9192L23.5673 18.8412V14.5286H16.9247C14.5072 17.8572 12.2574 20.9501 9.94927 24.1183C11.8419 26.701 13.8148 29.3906 15.7318 32C17.0292 30.224 18.069 28.7467 19.952 26.1689C20.9579 24.7865 21.3855 24.2009 21.6527 23.8462C23.5551 23.8462 25.0542 23.8462 25.4891 23.8341C27.1955 23.8117 28.8788 23.436 30.4327 22.7306C31.9867 22.0251 33.3775 21.0052 34.5175 19.7353C35.9826 18.1195 36.9635 16.1241 37.348 13.9771C37.78 11.5504 37.4481 9.04948 36.3981 6.81947Z" fill="#B71923"/>
</svg>
