<svg width="171" height="32" viewBox="0 0 171 32" fill="none" xmlns="http://www.w3.org/2000/svg">
<path d="M60.6009 15.8526H62.2742L61.3263 20.5315H58.7947L59.2831 18.0837H50.9397L50.46 20.5315H47.9168L48.8618 15.8526H49.2173C49.9494 15.8314 50.5823 15.291 51.116 14.2313C51.767 12.8337 52.2576 11.3668 52.5784 9.85877L53.4453 6.26074H62.5315L60.6009 15.8526ZM53.8962 13.8007C53.6551 14.5565 53.2617 15.2548 52.7402 15.8526H57.893L59.3611 8.48892H55.3152L54.8932 10.3183C54.6242 11.4963 54.2914 12.6588 53.8962 13.8007Z" fill="white"/>
<path d="M74.1404 7.23169C74.5399 7.55723 74.8572 7.97226 75.0666 8.4432C75.276 8.91415 75.3715 9.42777 75.3455 9.9425C75.368 10.8588 75.1251 11.762 74.6461 12.5435C74.1635 13.2934 73.4696 13.8837 72.652 14.2399C71.6894 14.6505 70.6492 14.8477 69.6031 14.8179H66.9675L66.3259 18.0778H63.5746L65.9386 6.27222H70.7187C72.1925 6.27222 73.3331 6.59204 74.1404 7.23169ZM71.8284 11.9684C72.0799 11.7461 72.2774 11.4695 72.4061 11.1596C72.5348 10.8496 72.5912 10.5145 72.5711 10.1795C72.5862 9.93682 72.5414 9.69419 72.4406 9.47295C72.3398 9.2517 72.1861 9.05864 71.9931 8.91077C71.5089 8.59956 70.9376 8.45169 70.3632 8.48884H68.2188L67.3894 12.5926H69.7014C70.6348 12.5926 71.3371 12.3845 71.8457 11.9684H71.8284Z" fill="white"/>
<path d="M83.8768 15.5491H78.3858L76.8483 18.0836H73.9121L81.5619 6.27222H84.2727L87.1627 18.0836H84.4259L83.8768 15.5491ZM83.4202 13.4712L82.4231 8.91077L79.6487 13.4712H83.4202Z" fill="white"/>
<path d="M91.1214 6.27225H93.8236L92.2543 13.9741L99.433 6.27225H102.034L99.6671 18.0952H96.965L98.5545 10.4107L91.3584 18.0952H88.7574L91.1214 6.27225ZM94.5432 5.01222C94.2985 4.83153 94.1029 4.59251 93.9742 4.31691C93.8455 4.04131 93.7877 3.7379 93.8062 3.43429C93.8024 3.2698 93.814 3.10531 93.8409 2.94299H95.5749C95.5617 3.02126 95.5559 3.10061 95.5576 3.17997C95.5503 3.32475 95.5761 3.46928 95.6332 3.60251C95.6903 3.73575 95.7772 3.85417 95.887 3.94871C96.1606 4.15508 96.4986 4.25751 96.8407 4.23771C97.2306 4.25361 97.6145 4.13754 97.9302 3.90825C98.2284 3.67218 98.4249 3.33093 98.4793 2.95456H100.254C100.211 3.33792 100.091 3.70879 99.9028 4.04531C99.7142 4.38183 99.4602 4.67719 99.1556 4.91396C98.5776 5.34168 97.7617 5.55554 96.7078 5.55554C95.7522 5.54012 95.0306 5.35517 94.5432 5.00066V5.01222Z" fill="white"/>
<path d="M113.646 12.8903C113.932 13.3225 114.076 13.8323 114.06 14.3497C114.088 14.9009 113.969 15.4497 113.715 15.9398C113.461 16.4298 113.081 16.8436 112.615 17.1386C111.651 17.7686 110.362 18.0836 108.748 18.0836H102.54L104.904 6.27222H110.615C111.886 6.27222 112.866 6.50535 113.554 6.9716C113.884 7.18805 114.152 7.48632 114.332 7.83732C114.513 8.18832 114.599 8.58008 114.583 8.97435C114.598 9.63751 114.395 10.2872 114.005 10.8239C113.609 11.3505 113.075 11.7567 112.462 11.9973C112.937 12.169 113.35 12.4802 113.646 12.8903ZM110.699 15.5837C110.905 15.4458 111.073 15.2568 111.186 15.035C111.298 14.8133 111.351 14.5663 111.34 14.3179C111.34 13.5058 110.762 13.1012 109.566 13.1012H106.257L105.679 16.023H108.904C109.533 16.0591 110.158 15.9061 110.699 15.5837ZM107.202 8.32121L106.644 11.1072H109.433C110.024 11.1419 110.611 10.9913 111.112 10.6765C111.308 10.536 111.466 10.3487 111.57 10.1316C111.675 9.91457 111.725 9.6747 111.713 9.43386C111.713 8.6921 111.135 8.32121 109.979 8.32121H107.202Z" fill="white"/>
<path d="M125.192 12.9192C125.497 13.3547 125.656 13.8759 125.645 14.4076C125.649 15.1743 125.356 15.9127 124.827 16.4681C124.225 17.1005 123.477 17.5758 122.648 17.8524C121.707 18.1842 120.716 18.3495 119.718 18.3408C118.905 18.3406 118.095 18.2327 117.311 18.0201C116.538 17.8158 115.805 17.4847 115.14 17.0404L116.392 15.0809C116.871 15.4161 117.405 15.6655 117.97 15.8179C118.55 15.9783 119.15 16.0599 119.753 16.0606C120.529 16.085 121.299 15.9109 121.99 15.5549C122.602 15.2168 122.911 14.7602 122.911 14.1879C122.911 13.4173 122.326 13.032 121.154 13.032H118.233L118.637 10.9714H121.374C121.885 10.9961 122.391 10.8574 122.819 10.5755C122.989 10.4644 123.128 10.3126 123.224 10.1338C123.32 9.95513 123.369 9.75524 123.368 9.55241C123.373 9.35133 123.322 9.15283 123.22 8.97959C123.117 8.80635 122.969 8.66535 122.79 8.5727C122.307 8.32584 121.768 8.20929 121.227 8.23458C120.683 8.2419 120.141 8.31269 119.614 8.44554C119.021 8.59199 118.446 8.80427 117.9 9.07845L117.496 6.95143C118.795 6.33801 120.212 6.01549 121.648 6.0064C122.435 5.99779 123.216 6.12288 123.96 6.37631C124.591 6.58575 125.158 6.95281 125.608 7.44272C126.007 7.88757 126.223 8.46648 126.215 9.064C126.216 9.68969 125.999 10.2961 125.599 10.7778C125.162 11.3094 124.585 11.7095 123.934 11.9338C124.438 12.1376 124.873 12.4792 125.192 12.9192Z" fill="white"/>
<path d="M135.746 15.5491H130.241L128.703 18.0836H125.782L133.434 6.27222H136.136L139.041 18.0951H136.293L135.746 15.5491ZM135.293 13.4712L134.296 8.91077L131.507 13.4712H135.293Z" fill="white"/>
<path d="M142.995 6.27222H145.697L144.125 13.974L151.303 6.27222H153.904L151.54 18.0951H148.838L150.425 10.4107L143.229 18.0836H140.628L142.995 6.27222ZM146.408 5.00062C146.164 4.81944 145.969 4.58024 145.841 4.30471C145.712 4.02917 145.655 3.72601 145.674 3.42269C145.67 3.2582 145.681 3.09371 145.708 2.9314H147.442C147.429 3.00967 147.423 3.08901 147.425 3.16837C147.418 3.31315 147.444 3.45768 147.501 3.59091C147.558 3.72415 147.645 3.84257 147.754 3.93711C148.028 4.14348 148.366 4.24591 148.708 4.22611C149.098 4.24201 149.482 4.12594 149.798 3.89665C150.095 3.6598 150.291 3.31894 150.347 2.94295H152.121C152.078 3.32632 151.959 3.6972 151.77 4.03372C151.582 4.37024 151.328 4.66559 151.023 4.90236C150.445 5.33008 149.621 5.54394 148.572 5.54394C147.624 5.53624 146.903 5.35513 146.408 5.00062Z" fill="white"/>
<path d="M170.155 6.27222L167.794 18.0836H165.245L166.646 11.0407L162.121 16.8207H160.886L158.453 10.9424L157.034 18.072H154.5L156.861 6.27222H159.092L162.045 13.6359L167.794 6.27222H170.155Z" fill="white"/>
<path d="M36.3981 6.82008C34.3912 2.37388 30.8755 0.131347 26.0552 0.0463104C21.0648 -0.0435853 19.4734 0.0268731 14.4805 0.0268731H0L6.82236 9.32015C12.6097 9.32015 17.8552 9.32015 23.5673 9.32015V4.99787L30.4917 11.9198L23.5673 18.8418V14.5292H16.9247C14.5072 17.8578 12.2574 20.9507 9.94927 24.1189C11.8419 26.7016 13.8148 29.3912 15.7318 32.0006C17.0292 30.2246 18.069 28.7474 19.952 26.1695C20.9579 24.7871 21.3855 24.2015 21.6527 23.8468C23.5551 23.8468 25.0542 23.8468 25.4891 23.8347C27.1955 23.8124 28.8788 23.4366 30.4327 22.7312C31.9867 22.0257 33.3775 21.0058 34.5175 19.7359C35.9826 18.1201 36.9635 16.1247 37.348 13.9777C37.78 11.551 37.4481 9.05009 36.3981 6.82008Z" fill="white"/>
</svg>
