<svg width="68" height="68" viewBox="0 0 68 68" fill="none" xmlns="http://www.w3.org/2000/svg">
<mask id="mask0_100_16467" style="mask-type:alpha" maskUnits="userSpaceOnUse" x="0" y="0" width="68" height="68">
<rect width="68" height="68" fill="#D9D9D9"/>
</mask>
<g mask="url(#mask0_100_16467)">
<path d="M8 45.9995L24 39.9995L28 42.9995L32 39.9995L48 45.9995V63.9995H8V45.9995Z" stroke="#828594" stroke-width="2"/>
<path d="M16 63.9995V56.9995" stroke="#828594" stroke-width="2"/>
<path d="M40 63.9995V56.9995" stroke="#828594" stroke-width="2"/>
<path d="M28 42.9995L24 47.9995L20.5 41.9995" stroke="#828594" stroke-width="2"/>
<path d="M28.5 42.9995L32.5 47.9995L36 41.9995" stroke="#828594" stroke-width="2"/>
<path d="M25 46.4995C27 47.2995 29 47.4995 31 46.4995" stroke="#828594" stroke-width="2"/>
<path d="M18 20.9995V26.9995C18 31.9701 22.0294 35.9995 27 35.9995H29C33.9706 35.9995 38 31.9701 38 26.9995V20.9995" stroke="#828594" stroke-width="2"/>
<path d="M24 39.9995V34.9995" stroke="#828594" stroke-width="2"/>
<path d="M32 39.9995V34.9995" stroke="#828594" stroke-width="2"/>
<path d="M30.8949 9.2096L29.93 9.47227L30.2238 10.5514L31.2635 10.1392L30.8949 9.2096ZM30.5286 14.6145L31.0198 13.7435L30.1961 13.279L29.6864 14.0755L30.5286 14.6145ZM25.4714 14.6145L26.3136 14.0755L25.8039 13.279L24.9802 13.7435L25.4714 14.6145ZM25.1051 9.2096L24.7366 10.1392L25.7762 10.5514L26.07 9.47226L25.1051 9.2096ZM31.8598 8.94694C31.3976 7.24918 29.846 5.99951 28 5.99951V7.99951C28.9209 7.99951 29.6988 8.62279 29.93 9.47227L31.8598 8.94694ZM32 7.99951C31.4815 7.99951 30.9837 8.09868 30.5264 8.27999L31.2635 10.1392C31.4901 10.0494 31.738 9.99951 32 9.99951V7.99951ZM36 11.9995C36 9.79037 34.2091 7.99951 32 7.99951V9.99951C33.1046 9.99951 34 10.8949 34 11.9995H36ZM32 15.9995C34.2091 15.9995 36 14.2087 36 11.9995H34C34 13.1041 33.1046 13.9995 32 13.9995V15.9995ZM30.0375 15.4856C30.6182 15.813 31.2888 15.9995 32 15.9995V13.9995C31.6419 13.9995 31.3085 13.9063 31.0198 13.7435L30.0375 15.4856ZM28 16.9995C29.4174 16.9995 30.6618 16.2615 31.3709 15.1536L29.6864 14.0755C29.3293 14.6333 28.7071 14.9995 28 14.9995V16.9995ZM24.6291 15.1536C25.3382 16.2615 26.5826 16.9995 28 16.9995V14.9995C27.2929 14.9995 26.6707 14.6333 26.3136 14.0755L24.6291 15.1536ZM24.9802 13.7435C24.6915 13.9063 24.3581 13.9995 24 13.9995V15.9995C24.7112 15.9995 25.3818 15.813 25.9625 15.4856L24.9802 13.7435ZM24 13.9995C22.8954 13.9995 22 13.1041 22 11.9995H20C20 14.2087 21.7909 15.9995 24 15.9995V13.9995ZM22 11.9995C22 10.8949 22.8954 9.99951 24 9.99951V7.99951C21.7909 7.99951 20 9.79037 20 11.9995H22ZM24 9.99951C24.262 9.99951 24.5099 10.0494 24.7366 10.1392L25.4736 8.27999C25.0163 8.09867 24.5185 7.99951 24 7.99951V9.99951ZM28 5.99951C26.154 5.99951 24.6024 7.24917 24.1402 8.94694L26.07 9.47226C26.3012 8.62279 27.0791 7.99951 28 7.99951V5.99951Z" fill="#828594"/>
<path d="M38 27.9995C39.6569 27.9995 41 26.6564 41 24.9995C41 23.3427 39.6569 21.9995 38 21.9995" stroke="#828594" stroke-width="2"/>
<path d="M18 27.9995C16.3431 27.9995 15 26.6564 15 24.9995C15 23.3427 16.3431 21.9995 18 21.9995" stroke="#828594" stroke-width="2"/>
<path d="M21 23.9995C21 22.8949 21.8954 21.9995 23 21.9995C24.1046 21.9995 25 22.8949 25 23.9995" stroke="#828594" stroke-width="2"/>
<path d="M31 23.9995C31 22.8949 31.8954 21.9995 33 21.9995C34.1046 21.9995 35 22.8949 35 23.9995" stroke="#828594" stroke-width="2"/>
<path d="M25 28.9995C25 30.6564 26.3431 31.9995 28 31.9995C29.6569 31.9995 31 30.6564 31 28.9995" stroke="#828594" stroke-width="2"/>
<path d="M38 20.9995C38 18.0128 36.6906 15.3319 34.6146 13.4995M18 20.9995C18 18.0128 19.3094 15.3319 21.3854 13.4995" stroke="#828594" stroke-width="2"/>
<path d="M21.277 13.5162C17.277 12.0162 15.277 14.0162 15.277 16.5162C15.277 19.0162 14.5263 18.7307 14.277 20.5161C14 22.4995 15.9445 23.0161 16.2782 23.5161" stroke="#828594" stroke-width="2"/>
<path d="M35.2504 13.5162C39.2504 12.0162 41.2504 14.0162 41.2504 16.5162C41.2504 19.0162 42.001 18.7307 42.2504 20.5161C42.5273 22.4995 40.5829 23.0161 40.2491 23.5161" stroke="#828594" stroke-width="2"/>
<path d="M26 18.9995H30" stroke="#828594" stroke-width="2"/>
<path d="M23 26.9995L21 28.9995" stroke="#828594" stroke-width="2"/>
<path d="M33 26.9995L35 28.9995" stroke="#828594" stroke-width="2"/>
<path d="M40 30.9998L46 26.9998H64V6.99976H40V10.4998" stroke="#B71923" stroke-width="2"/>
<path d="M48.0805 21.9996V10.7996H52.6885C54.1605 10.7996 55.3178 11.1196 56.1605 11.7596C57.0138 12.3889 57.4405 13.3222 57.4405 14.5596C57.4405 15.7862 57.0138 16.7196 56.1605 17.3596C55.3178 17.9889 54.1605 18.3036 52.6885 18.3036H49.2325L50.1605 17.3436V21.9996H48.0805ZM50.1605 17.5676L49.2325 16.6236H52.6725C53.5258 16.6236 54.1818 16.4476 54.6405 16.0956C55.1098 15.7329 55.3445 15.2262 55.3445 14.5756C55.3445 13.9249 55.1098 13.4289 54.6405 13.0876C54.1818 12.7356 53.5258 12.5596 52.6725 12.5596H49.2325L50.1605 11.5356V17.5676ZM46.4805 20.3356V19.2156H53.6805V20.3356H46.4805Z" fill="#B71923"/>
<path fill-rule="evenodd" clip-rule="evenodd" d="M50.8592 38.6333C51.4957 35.5221 54.6435 33.5384 57.89 34.2026C61.1364 34.8669 63.2522 37.9274 62.6156 41.0386L57.7549 64.7965L54.8158 64.1951L59.6765 40.4373C59.9948 38.8817 58.9369 37.3514 57.3137 37.0193C55.6905 36.6872 54.1166 37.679 53.7983 39.2346L53.078 42.7554L50.1388 42.1541L50.8592 38.6333Z" stroke="#828594" stroke-width="2"/>
</g>
</svg>
