<svg width="68" height="68" viewBox="0 0 68 68" fill="none" xmlns="http://www.w3.org/2000/svg">
<mask id="mask0_77_4031" style="mask-type:alpha" maskUnits="userSpaceOnUse" x="0" y="0" width="68" height="68">
<rect width="68" height="68" fill="#D9D9D9"/>
</mask>
<g mask="url(#mask0_77_4031)">
<path d="M11.1048 55.7754L5.00054 46.7255L12.1886 41.8771L22.4914 57.1516L15.3034 62L13.7922 59.7596" stroke="#828594" stroke-width="2"/>
<path d="M20.8589 55.4244L23.3449 53.7671C23.8307 53.4432 24.4338 53.3478 24.9958 53.5059L38.1633 57.2092C40.2529 57.797 42.4944 57.4556 44.3144 56.2726L60.2556 45.9109C61.8251 44.8907 62.2365 42.7728 61.163 41.2393V41.2393C60.142 39.7807 58.1498 39.3916 56.655 40.3588L50.1213 44.5865" stroke="#828594" stroke-width="2"/>
<path d="M13.2724 44.0446L23.1511 38.2072C24.4534 37.4376 26.0181 37.2472 27.467 37.6819L43.4464 42.4757C45.3201 43.0378 46.3582 45.0377 45.7396 46.8936V46.8936C45.1576 48.6395 43.3131 49.6266 41.5376 49.1424L32.7806 46.7541" stroke="#828594" stroke-width="2"/>
<circle cx="44" cy="20" r="14" stroke="#B71923" stroke-width="2"/>
<path d="M39.8667 28.1666V12.7666H45.2427C46.96 12.7666 48.3102 13.1399 49.2933 13.8866C50.2889 14.6208 50.7867 15.7097 50.7867 17.1533C50.7867 18.5844 50.2889 19.6733 49.2933 20.4199C48.3102 21.1542 46.96 21.5213 45.2427 21.5213H41.2107L42.2933 20.4013V28.1666H39.8667ZM42.2933 20.6626L41.2107 19.5613H45.224C46.2196 19.5613 46.9849 19.3559 47.52 18.9453C48.0676 18.5222 48.3413 17.931 48.3413 17.1719C48.3413 16.4128 48.0676 15.8342 47.52 15.4359C46.9849 15.0253 46.2196 14.8199 45.224 14.8199H41.2107L42.2933 13.6253V20.6626ZM38 24.6668V22.5853H46.4V24.6668H38Z" fill="#B71923"/>
</g>
</svg>
