<svg width="68" height="68" viewBox="0 0 68 68" fill="none" xmlns="http://www.w3.org/2000/svg">
<mask id="mask0_100_16519" style="mask-type:alpha" maskUnits="userSpaceOnUse" x="0" y="0" width="68" height="68">
<rect width="68" height="68" fill="#D9D9D9"/>
</mask>
<g mask="url(#mask0_100_16519)">
<path d="M14 58H15V57C15 46.5066 23.5066 38 34 38C44.4934 38 53 46.5066 53 57V58H54H58H59V57C59 43.1929 47.8071 32 34 32C20.1929 32 9 43.1929 9 57V58H10H14Z" stroke="#828594" stroke-width="2"/>
<path d="M34 32V38" stroke="#828594" stroke-width="2"/>
<path d="M16 39L20.5 43" stroke="#828594" stroke-width="2"/>
<path d="M50.5 39L46 43" stroke="#828594" stroke-width="2"/>
<path d="M35.249 54.1403C36.7717 54.7935 37.4766 56.5573 36.8234 58.08C36.1703 59.6027 34.4064 60.3076 32.8837 59.6544C32.4339 59.4614 30.5303 58.4493 27.855 56.9755C25.2112 55.519 21.8789 53.6482 18.6224 51.7761C15.364 49.9028 12.1904 48.0332 9.85994 46.5775C9.75062 46.5092 9.6433 46.442 9.53805 46.3757C9.65859 46.4063 9.7813 46.4377 9.90612 46.4699C12.567 47.1552 16.1089 48.1663 19.7119 49.2363C23.3127 50.3056 26.9648 51.4309 29.8422 52.3428C32.7539 53.2655 34.7992 53.9473 35.249 54.1403Z" stroke="#828594" stroke-width="2"/>
<circle cx="34.0671" cy="56.8971" r="1" transform="rotate(-66.7827 34.0671 56.8971)" fill="#828594"/>
<path d="M58 5H10V8.5V29L16 25H58V5Z" stroke="#B71923" stroke-width="2"/>
<path d="M17.184 20V10.9L17.982 11.726H15.112V10.2H19.004V20H17.184ZM22.516 20V10.9L23.314 11.726H20.444V10.2H24.336V20H22.516ZM26.1541 20V18.782L30.0461 15.086C30.3727 14.778 30.6154 14.5073 30.7741 14.274C30.9327 14.0407 31.0354 13.826 31.0821 13.63C31.1381 13.4247 31.1661 13.2333 31.1661 13.056C31.1661 12.608 31.0121 12.2627 30.7041 12.02C30.3961 11.768 29.9434 11.642 29.3461 11.642C28.8701 11.642 28.4361 11.726 28.0441 11.894C27.6614 12.062 27.3301 12.3187 27.0501 12.664L25.7761 11.684C26.1587 11.1707 26.6721 10.774 27.3161 10.494C27.9694 10.2047 28.6974 10.06 29.5001 10.06C30.2094 10.06 30.8254 10.1767 31.3481 10.41C31.8801 10.634 32.2861 10.956 32.5661 11.376C32.8554 11.796 33.0001 12.2953 33.0001 12.874C33.0001 13.1913 32.9581 13.5087 32.8741 13.826C32.7901 14.134 32.6314 14.4607 32.3981 14.806C32.1647 15.1513 31.8241 15.5387 31.3761 15.968L28.0301 19.146L27.6521 18.46H33.3781V20H26.1541Z" fill="#B71923"/>
<path d="M35.82 20.6L37.8 14.948H38.472L36.492 20.6H35.82ZM39.3442 20V16.1L39.6862 16.454H38.4562V15.8H40.1242V20H39.3442ZM42.7094 20.06C42.3774 20.06 42.0774 19.976 41.8094 19.808C41.5454 19.64 41.3374 19.396 41.1854 19.076C41.0334 18.752 40.9574 18.36 40.9574 17.9C40.9574 17.44 41.0334 17.05 41.1854 16.73C41.3374 16.406 41.5454 16.16 41.8094 15.992C42.0774 15.824 42.3774 15.74 42.7094 15.74C43.0454 15.74 43.3454 15.824 43.6094 15.992C43.8734 16.16 44.0814 16.406 44.2334 16.73C44.3894 17.05 44.4674 17.44 44.4674 17.9C44.4674 18.36 44.3894 18.752 44.2334 19.076C44.0814 19.396 43.8734 19.64 43.6094 19.808C43.3454 19.976 43.0454 20.06 42.7094 20.06ZM42.7094 19.382C42.9054 19.382 43.0754 19.33 43.2194 19.226C43.3634 19.118 43.4754 18.954 43.5554 18.734C43.6394 18.514 43.6814 18.236 43.6814 17.9C43.6814 17.56 43.6394 17.282 43.5554 17.066C43.4754 16.846 43.3634 16.684 43.2194 16.58C43.0754 16.472 42.9054 16.418 42.7094 16.418C42.5214 16.418 42.3534 16.472 42.2054 16.58C42.0614 16.684 41.9474 16.846 41.8634 17.066C41.7834 17.282 41.7434 17.56 41.7434 17.9C41.7434 18.236 41.7834 18.514 41.8634 18.734C41.9474 18.954 42.0614 19.118 42.2054 19.226C42.3534 19.33 42.5214 19.382 42.7094 19.382ZM46.7465 20.06C46.4145 20.06 46.1145 19.976 45.8465 19.808C45.5825 19.64 45.3745 19.396 45.2225 19.076C45.0705 18.752 44.9945 18.36 44.9945 17.9C44.9945 17.44 45.0705 17.05 45.2225 16.73C45.3745 16.406 45.5825 16.16 45.8465 15.992C46.1145 15.824 46.4145 15.74 46.7465 15.74C47.0825 15.74 47.3825 15.824 47.6465 15.992C47.9105 16.16 48.1185 16.406 48.2705 16.73C48.4265 17.05 48.5045 17.44 48.5045 17.9C48.5045 18.36 48.4265 18.752 48.2705 19.076C48.1185 19.396 47.9105 19.64 47.6465 19.808C47.3825 19.976 47.0825 20.06 46.7465 20.06ZM46.7465 19.382C46.9425 19.382 47.1125 19.33 47.2565 19.226C47.4005 19.118 47.5125 18.954 47.5925 18.734C47.6765 18.514 47.7185 18.236 47.7185 17.9C47.7185 17.56 47.6765 17.282 47.5925 17.066C47.5125 16.846 47.4005 16.684 47.2565 16.58C47.1125 16.472 46.9425 16.418 46.7465 16.418C46.5585 16.418 46.3905 16.472 46.2425 16.58C46.0985 16.684 45.9845 16.846 45.9005 17.066C45.8205 17.282 45.7805 17.56 45.7805 17.9C45.7805 18.236 45.8205 18.514 45.9005 18.734C45.9845 18.954 46.0985 19.118 46.2425 19.226C46.3905 19.33 46.5585 19.382 46.7465 19.382ZM50.7836 20.06C50.4516 20.06 50.1516 19.976 49.8836 19.808C49.6196 19.64 49.4116 19.396 49.2596 19.076C49.1076 18.752 49.0316 18.36 49.0316 17.9C49.0316 17.44 49.1076 17.05 49.2596 16.73C49.4116 16.406 49.6196 16.16 49.8836 15.992C50.1516 15.824 50.4516 15.74 50.7836 15.74C51.1196 15.74 51.4196 15.824 51.6836 15.992C51.9476 16.16 52.1556 16.406 52.3076 16.73C52.4636 17.05 52.5416 17.44 52.5416 17.9C52.5416 18.36 52.4636 18.752 52.3076 19.076C52.1556 19.396 51.9476 19.64 51.6836 19.808C51.4196 19.976 51.1196 20.06 50.7836 20.06ZM50.7836 19.382C50.9796 19.382 51.1496 19.33 51.2936 19.226C51.4376 19.118 51.5496 18.954 51.6296 18.734C51.7136 18.514 51.7556 18.236 51.7556 17.9C51.7556 17.56 51.7136 17.282 51.6296 17.066C51.5496 16.846 51.4376 16.684 51.2936 16.58C51.1496 16.472 50.9796 16.418 50.7836 16.418C50.5956 16.418 50.4276 16.472 50.2796 16.58C50.1356 16.684 50.0216 16.846 49.9376 17.066C49.8576 17.282 49.8176 17.56 49.8176 17.9C49.8176 18.236 49.8576 18.514 49.9376 18.734C50.0216 18.954 50.1356 19.118 50.2796 19.226C50.4276 19.33 50.5956 19.382 50.7836 19.382Z" fill="#828594"/>
</g>
</svg>
