<svg width="68" height="68" viewBox="0 0 68 68" fill="none" xmlns="http://www.w3.org/2000/svg">
<mask id="mask0_77_4009" style="mask-type:alpha" maskUnits="userSpaceOnUse" x="0" y="0" width="68" height="68">
<rect width="68" height="68" fill="#D9D9D9"/>
</mask>
<g mask="url(#mask0_77_4009)">
<path d="M13 26V60H55V51V49.5M13 21.5V11H42M42 11V23.5H49.5M42 11L55 23.5V28.5" stroke="#828594" stroke-width="2"/>
<rect x="18" y="16" width="18" height="7" stroke="#828594" stroke-width="2"/>
<path d="M17 29L51 29" stroke="#828594" stroke-width="2"/>
<path d="M17 34L48 34" stroke="#828594" stroke-width="2"/>
<path d="M17 39L44 39" stroke="#828594" stroke-width="2"/>
<path d="M17 44L40 44" stroke="#828594" stroke-width="2"/>
<path d="M17 54L40 54" stroke="#B71923" stroke-width="2"/>
<path d="M44 8.5V6H6V46H9.5" stroke="#828594" stroke-width="2"/>
<path d="M56.8672 31L62.2604 35.4388L48.944 51.6183L42.6964 53.7135L43.5509 47.1796L56.8672 31Z" stroke="#B71923" stroke-width="2"/>
<path d="M54.2031 34.2358L57.9784 37.343" stroke="#B71923" stroke-width="2"/>
</g>
</svg>
