<svg width="24" height="24" viewBox="0 0 24 24" fill="none" xmlns="http://www.w3.org/2000/svg">
<mask id="mask0_77_3654" style="mask-type:alpha" maskUnits="userSpaceOnUse" x="0" y="0" width="24" height="24">
<rect width="24" height="24" fill="#D9D9D9"/>
</mask>
<g mask="url(#mask0_77_3654)">
<path d="M16.5697 13.2953C16.534 13.2786 15.1971 12.6354 14.9595 12.5519C14.8625 12.5178 14.7586 12.4846 14.6481 12.4846C14.4676 12.4846 14.3159 12.5725 14.1978 12.7452C14.0643 12.9391 13.66 13.4008 13.5351 13.5387C13.5187 13.5569 13.4965 13.5787 13.4831 13.5787C13.4712 13.5787 13.2643 13.4955 13.2016 13.4689C11.7675 12.8602 10.6789 11.3966 10.5296 11.1497C10.5083 11.1142 10.5074 11.0981 10.5072 11.0981C10.5125 11.0793 10.5607 11.0321 10.5856 11.0077C10.6584 10.9373 10.7373 10.8446 10.8136 10.7548C10.8498 10.7123 10.886 10.6697 10.9215 10.6296C11.0323 10.5037 11.0816 10.4059 11.1387 10.2927L11.1687 10.2339C11.3082 9.96303 11.189 9.73441 11.1505 9.66059C11.1189 9.59881 10.5544 8.26772 10.4944 8.12788C10.35 7.79042 10.1593 7.6333 9.89432 7.6333C9.86973 7.6333 9.89432 7.6333 9.7912 7.63755C9.66562 7.64272 8.9818 7.73068 8.67945 7.91689C8.35882 8.11438 7.81641 8.74392 7.81641 9.85105C7.81641 10.8475 8.46361 11.7883 8.74149 12.1461C8.7484 12.1551 8.76108 12.1734 8.77948 12.1997C9.84365 13.7181 11.1703 14.8434 12.5151 15.3683C13.8098 15.8736 14.4229 15.932 14.7715 15.932C14.7715 15.932 14.7715 15.932 14.7715 15.932C14.918 15.932 15.0352 15.9208 15.1387 15.9108L15.2043 15.9047C15.6516 15.866 16.6345 15.3684 16.858 14.7613C17.0342 14.2832 17.0806 13.7608 16.9634 13.5713C16.8832 13.4423 16.7448 13.3775 16.5697 13.2953Z" fill="white"/>
<path d="M12.332 3C7.3654 3 3.32472 6.91811 3.32472 11.7341C3.32472 13.2918 3.75139 14.8165 4.55966 16.151L3.01261 20.6096C2.98379 20.6927 3.00523 20.7846 3.06816 20.8472C3.11359 20.8925 3.17521 20.9169 3.23815 20.9169C3.26226 20.9169 3.28656 20.9134 3.31025 20.906L8.06875 19.4287C9.37091 20.1084 10.8426 20.4672 12.3321 20.4672C17.2983 20.4673 21.3385 16.5496 21.3385 11.7341C21.3385 6.91811 17.2983 3 12.332 3ZM12.332 18.6479C10.9305 18.6479 9.57305 18.2525 8.40617 17.5044C8.36693 17.4792 8.32138 17.4663 8.27554 17.4663C8.2513 17.4663 8.22701 17.4699 8.20337 17.4772L5.81966 18.2175L6.58916 15.9995C6.61405 15.9277 6.60161 15.8485 6.55576 15.7873C5.66717 14.6011 5.19746 13.1996 5.19746 11.7341C5.19746 7.92134 8.39801 4.81938 12.332 4.81938C16.2655 4.81938 19.4657 7.92134 19.4657 11.7341C19.4657 15.5464 16.2656 18.6479 12.332 18.6479Z" fill="white"/>
</g>
</svg>
